<svg width="256" height="256" viewBox="0 0 256 256" xmlns="http://www.w3.org/2000/svg">
    <!-- Gradients for Realism -->
    <defs>
        <linearGradient id="seedGradient" x1="0%" y1="0%" x2="100%" y2="100%" gradientUnits="userSpaceOnUse">
            <stop offset="0%" stop-color="#8B5A2B" />
            <stop offset="100%" stop-color="#6B3A1C" />
        </linearGradient>
        <linearGradient id="stalkGradient" x1="50%" y1="0%" x2="50%" y2="100%" gradientUnits="userSpaceOnUse">
            <stop offset="0%" stop-color="#4F772D" />
            <stop offset="100%" stop-color="#2D572C" />
        </linearGradient>
        <linearGradient id="leafGradient" x1="0%" y1="0%" x2="100%" y2="100%" gradientUnits="userSpaceOnUse">
            <stop offset="0%" stop-color="#2D572C" />
            <stop offset="100%" stop-color="#1B3B1B" />
        </linearGradient>
    </defs>
    <!-- Background Circle -->
    <circle cx="128" cy="128" r="120" fill="#A7D397" />
    <!-- Stalk (Now Fixed) -->
    <path d="M128 170 C128 145, 128 120, 128 110" stroke="url(#stalkGradient)" stroke-width="14" fill="none" stroke-linecap="round" />
    <!-- Left Leaf -->
    <path d="M120 110 C95 80, 50 85, 80 125 C90 135, 110 120, 120 110" fill="url(#leafGradient)" stroke="#1B3B1B" stroke-width="3" stroke-linecap="round" />
    <!-- Right Leaf -->
    <path d="M136 110 C165 80, 210 85, 180 125 C170 135, 150 120, 136 110" fill="url(#leafGradient)" stroke="#1B3B1B" stroke-width="3" stroke-linecap="round" />
    <!-- Left Leaf Veins -->
    <path d="M102 118 C95 110, 85 120, 90 125" stroke="#1B3B1B" stroke-width="2" fill="none" />
    <path d="M108 112 C100 108, 88 115, 92 122" stroke="#1B3B1B" stroke-width="2" fill="none" />
    <!-- Right Leaf Veins -->
    <path d="M154 118 C160 110, 170 120, 165 125" stroke="#1B3B1B" stroke-width="2" fill="none" />
    <path d="M148 112 C156 108, 168 115, 164 122" stroke="#1B3B1B" stroke-width="2" fill="none" />
    <!-- Soft Leaf Highlights -->
    <path d="M95 100 C85 90, 75 100, 85 110" stroke="rgba(255, 255, 255, 0.3)" stroke-width="2" opacity="0.4" fill="none" />
    <path d="M165 100 C175 90, 185 100, 175 110" stroke="rgba(255, 255, 255, 0.3)" stroke-width="2" opacity="0.4" fill="none" />
    <!-- Leaf Shadows -->
    <!-- Left Leaf Shadow (Aligned Closer & Smoother Curve) -->
    <path d="M90 120 C85 128, 95 138, 110 132" fill="none" stroke="rgba(0, 0, 0, 0.15)" stroke-width="2" />
    <!-- Right Leaf Shadow (Aligned Closer & Smoother Curve) -->
    <path d="M166 120 C171 128, 161 138, 146 132" fill="none" stroke="rgba(0, 0, 0, 0.15)" stroke-width="2" />
    <!-- Seed Base -->
    <ellipse cx="128" cy="180" rx="35" ry="45" fill="url(#seedGradient)" stroke="#5E3A1C" stroke-width="4" />
    <!-- Seed Highlight -->
    <path d="M118 165 C110 175, 120 190, 135 185" fill="none" stroke="#A67445" stroke-width="3" opacity="0.6" />
    <!-- Seed Shadow -->
    <path d="M110 190 C125 210, 145 200, 140 185" fill="none" stroke="#5E3A1C" stroke-width="4" opacity="0.5" />
</svg>